<?xml version="1.0" encoding="UTF-8"?>
<svg id="Capa_1" data-name="Capa 1" xmlns="http://www.w3.org/2000/svg" viewBox="0 0 741.07 136.81">
  <defs>
    <style>
      .cls-1 {
        fill: #736357;
      }

      .cls-2 {
        fill: #86b772;
      }
    </style>
  </defs>
  <g>
    <polygon class="cls-1" points="253.37 44.34 278.44 44.34 278.44 105.08 290.76 105.08 290.76 44.34 315.82 44.34 315.82 32.02 253.37 32.02 253.37 44.34"/>
    <path class="cls-1" d="M382.78,30.96c-2.62,0-4.93,1.53-5.9,3.9l-30.01,70.22h13.72l22.09-51.5,21.8,51.5h13.72l-29.71-70.21c-1-2.45-3.13-3.91-5.71-3.91Z"/>
    <path class="cls-1" d="M511.27,84.84c-4.54,5.77-11.62,9.08-19.49,9.08-13.88,0-25.17-11.55-25.17-25.75s11.06-25.27,25.17-25.27c7.27,0,13.95,3.11,18.83,8.76l.59,.68,8.87-8.42-.55-.62c-7.1-8.03-17.21-12.63-27.73-12.63-21.02,0-37.49,16.47-37.49,37.49s16.82,37.97,37.49,37.97c12.84,0,24.49-6.2,31.2-16.61,.39-.65,.6-1.39,.6-2.08v-17.73h-12.32v15.12Z"/>
    <path class="cls-1" d="M631.73,56.69c0-13.6-10.94-24.67-24.38-24.67h-29.12c-3.61,0-6.54,2.89-6.54,6.45V105.08h12.32v-24.97h17.4l17.35,24.97h14.15l-18.27-25.98c10.27-2.95,17.09-11.81,17.09-22.4Zm-12.32,0c0,6.6-5.3,11.77-12.06,11.77h-23.34v-24.13h23.34c6.54,0,12.06,5.66,12.06,12.35Z"/>
    <path class="cls-1" d="M711.36,34.87c-1-2.45-3.14-3.91-5.71-3.91s-4.93,1.53-5.9,3.9l-30.01,70.22h13.72l22.08-51.5,21.81,51.5h13.72l-29.71-70.21Z"/>
    <rect class="cls-1" x="191.07" y="32.02" width="12.32" height="73.06"/>
  </g>
  <g>
    <path class="cls-2" d="M54.29,34.82c3.04,0,5.57,1.73,6.75,4.62l29.2,69c10.91-9.88,17.76-24.16,17.76-40.03,0-29.82-24.18-54-54-54S0,38.58,0,68.41c0,15.9,6.87,30.19,17.81,40.07L47.32,39.42c1.14-2.79,3.88-4.6,6.97-4.6Z"/>
    <path class="cls-2" d="M30.39,116.98c7.13,3.47,15.14,5.43,23.61,5.43s16.49-1.96,23.63-5.44l-23.47-55.43-23.77,55.44Z"/>
  </g>
</svg>