<?xml version="1.0" encoding="UTF-8"?>
<svg id="Capa_2" data-name="Capa 2" xmlns="http://www.w3.org/2000/svg" viewBox="0 0 1080 543.13">
  <defs>
    <style>
      .cls-1 {
        fill: #736357;
      }

      .cls-2 {
        fill: #83b472;
      }
    </style>
  </defs>
  <g id="Capa_1-2" data-name="Capa 1">
    <g>
      <g>
        <polygon class="cls-1" points="122.34 318.38 171.56 318.38 171.56 437.64 195.75 437.64 195.75 318.38 244.97 318.38 244.97 294.19 122.34 294.19 122.34 318.38"/>
        <path class="cls-1" d="M376.45,292.11c-5.14,0-9.68,3.01-11.58,7.65l-58.93,137.89h26.94l43.37-101.14,42.82,101.14h26.94l-58.34-137.86c-1.96-4.81-6.15-7.67-11.21-7.67Z"/>
        <path class="cls-1" d="M628.76,397.9c-8.91,11.33-22.82,17.82-38.26,17.82-27.26,0-49.43-22.69-49.43-50.57s21.71-49.62,49.43-49.62c14.27,0,27.4,6.11,36.97,17.21l1.15,1.34,17.41-16.53-1.08-1.22c-13.94-15.76-33.79-24.8-54.45-24.8-41.28,0-73.62,32.34-73.62,73.62s33.02,74.57,73.62,74.57c25.2,0,48.1-12.18,61.27-32.62,.76-1.28,1.18-2.73,1.18-4.08v-34.81h-24.19v29.69Z"/>
        <path class="cls-1" d="M865.29,342.63c0-26.71-21.48-48.44-47.87-48.44h-57.17c-7.08,0-12.85,5.68-12.85,12.66v130.79h24.19v-49.03h34.16l34.08,49.03h27.78l-35.87-51.02c20.17-5.8,33.56-23.19,33.56-43.99Zm-24.19,0c0,12.96-10.4,23.12-23.69,23.12h-45.84v-47.37h45.84c12.84,0,23.69,11.11,23.69,24.25Z"/>
        <path class="cls-1" d="M1021.66,299.78c-1.96-4.81-6.16-7.67-11.21-7.67s-9.68,3.01-11.58,7.65l-58.93,137.89h26.94l43.37-101.14,42.82,101.14h26.94l-58.34-137.86Z"/>
        <rect class="cls-1" y="294.19" width="24.19" height="143.45"/>
      </g>
      <g>
        <path class="cls-1" d="M202.98,505.99h7.22c4.14,0,6.93,.18,8.38,.54,2.07,.51,3.76,1.56,5.07,3.14s1.97,3.58,1.97,5.97-.64,4.41-1.92,5.97c-1.28,1.57-3.05,2.62-5.3,3.17-1.64,.39-4.71,.59-9.21,.59h-2.59v16.85h-3.62v-36.23Zm3.62,3.55v12.29l6.13,.07c2.48,0,4.29-.22,5.44-.68,1.15-.45,2.05-1.18,2.71-2.19s.99-2.13,.99-3.38-.33-2.32-.99-3.33c-.66-1.01-1.52-1.72-2.6-2.15-1.08-.43-2.84-.64-5.28-.64h-6.4Z"/>
        <path class="cls-1" d="M254.02,505.99l16.9,36.23h-3.91l-5.7-11.92h-15.61l-5.65,11.92h-4.04l17.12-36.23h.89Zm-.46,7.7l-6.21,13.12h12.39l-6.18-13.12Z"/>
        <path class="cls-1" d="M283.08,505.99h7.22c4.02,0,6.75,.16,8.18,.49,2.15,.49,3.9,1.55,5.25,3.17,1.35,1.62,2.02,3.61,2.02,5.98,0,1.97-.46,3.71-1.39,5.2s-2.25,2.63-3.98,3.39c-1.72,.77-4.11,1.16-7.14,1.17l13.03,16.82h-4.48l-13.03-16.82h-2.05v16.82h-3.62v-36.23Zm3.62,3.55v12.32l6.24,.05c2.42,0,4.21-.23,5.37-.69,1.16-.46,2.06-1.19,2.71-2.2,.65-1.01,.97-2.14,.97-3.39s-.33-2.32-.99-3.31c-.66-.99-1.52-1.7-2.59-2.13s-2.85-.64-5.33-.64h-6.39Z"/>
        <path class="cls-1" d="M353.61,512.71l-2.86,2.19c-1.58-2.05-3.47-3.61-5.68-4.67-2.21-1.06-4.63-1.59-7.28-1.59-2.89,0-5.57,.69-8.03,2.08s-4.37,3.25-5.73,5.59-2.03,4.97-2.03,7.89c0,4.42,1.52,8.1,4.54,11.06s6.85,4.43,11.47,4.43c5.07,0,9.32-1.99,12.74-5.96l2.86,2.17c-1.81,2.3-4.06,4.08-6.76,5.33-2.7,1.26-5.72,1.88-9.05,1.88-6.34,0-11.34-2.11-15-6.33-3.07-3.56-4.61-7.87-4.61-12.91,0-5.3,1.86-9.77,5.58-13.39,3.72-3.62,8.38-5.43,13.98-5.43,3.38,0,6.44,.67,9.16,2.01,2.73,1.34,4.96,3.21,6.7,5.63Z"/>
        <path class="cls-1" d="M367.26,505.99h20.77v3.55h-17.14v11.36h17v3.55h-17v14.24h17v3.55h-20.62v-36.23Z"/>
        <path class="cls-1" d="M400.63,505.99h3.62v32.74h13.94v3.5h-17.56v-36.23Z"/>
        <path class="cls-1" d="M445.1,505.99l16.9,36.23h-3.91l-5.7-11.92h-15.61l-5.65,11.92h-4.04l17.12-36.23h.89Zm-.46,7.7l-6.21,13.12h12.39l-6.18-13.12Z"/>
        <path class="cls-1" d="M470.22,535.47l3.08-1.85c2.17,3.99,4.67,5.99,7.51,5.99,1.21,0,2.36-.28,3.42-.85,1.07-.57,1.88-1.33,2.44-2.28,.56-.95,.84-1.96,.84-3.03,0-1.21-.41-2.41-1.23-3.57-1.13-1.61-3.2-3.55-6.21-5.81-3.02-2.28-4.9-3.93-5.64-4.95-1.28-1.71-1.92-3.56-1.92-5.54,0-1.58,.38-3.01,1.13-4.31,.76-1.3,1.82-2.32,3.19-3.07s2.86-1.12,4.47-1.12c1.71,0,3.3,.42,4.79,1.27,1.49,.85,3.06,2.4,4.72,4.67l-2.96,2.24c-1.36-1.81-2.52-3-3.49-3.57-.96-.57-2.01-.86-3.14-.86-1.46,0-2.66,.44-3.58,1.33-.93,.89-1.39,1.98-1.39,3.28,0,.79,.16,1.55,.49,2.29,.33,.74,.93,1.54,1.8,2.41,.48,.46,2.04,1.67,4.68,3.62,3.14,2.32,5.29,4.38,6.45,6.18,1.17,1.81,1.75,3.62,1.75,5.44,0,2.63-1,4.91-2.99,6.85s-4.42,2.91-7.28,2.91c-2.2,0-4.2-.59-5.99-1.76-1.79-1.17-3.44-3.14-4.95-5.9Z"/>
        <path class="cls-1" d="M525.77,542.22v-36.23h7.51c5.42,0,9.35,.43,11.8,1.31,3.51,1.23,6.26,3.37,8.24,6.4,1.98,3.04,2.97,6.66,2.97,10.86,0,3.63-.78,6.82-2.35,9.58-1.57,2.76-3.61,4.79-6.11,6.11-2.5,1.31-6.01,1.97-10.53,1.97h-11.53Zm3.47-3.42h4.19c5.01,0,8.48-.31,10.42-.94,2.73-.89,4.87-2.48,6.43-4.79,1.56-2.3,2.34-5.12,2.34-8.45,0-3.49-.85-6.48-2.54-8.96s-4.05-4.18-7.07-5.09c-2.27-.69-6-1.03-11.21-1.03h-2.56v29.26Z"/>
        <path class="cls-1" d="M569.69,505.99h20.77v3.55h-17.14v11.36h17v3.55h-17v14.24h17v3.55h-20.62v-36.23Z"/>
        <path class="cls-1" d="M638.2,505.99l16.9,36.23h-3.91l-5.7-11.92h-15.61l-5.64,11.92h-4.04l17.12-36.23h.89Zm-.46,7.7l-6.21,13.12h12.39l-6.18-13.12Z"/>
        <path class="cls-1" d="M702.03,512.07l-2.81,2.66c-2.02-1.99-4.23-3.49-6.64-4.52-2.41-1.03-4.75-1.54-7.03-1.54-2.84,0-5.55,.7-8.12,2.09-2.57,1.4-4.56,3.29-5.97,5.68-1.41,2.39-2.12,4.91-2.12,7.58s.73,5.32,2.19,7.77c1.46,2.46,3.48,4.38,6.06,5.79,2.58,1.4,5.4,2.11,8.47,2.11,3.73,0,6.88-1.05,9.46-3.15,2.58-2.1,4.1-4.83,4.58-8.18h-11.55v-3.5h15.62c-.03,5.6-1.7,10.05-4.99,13.34-3.29,3.29-7.7,4.94-13.21,4.94-6.7,0-12-2.28-15.91-6.85-3-3.51-4.51-7.58-4.51-12.19,0-3.43,.86-6.63,2.59-9.58,1.72-2.96,4.09-5.27,7.09-6.93s6.4-2.5,10.2-2.5c3.07,0,5.96,.55,8.67,1.66,2.71,1.11,5.35,2.89,7.93,5.33Z"/>
        <path class="cls-1" d="M717.62,505.99h7.22c4.02,0,6.75,.16,8.18,.49,2.15,.49,3.9,1.55,5.25,3.17,1.35,1.62,2.02,3.61,2.02,5.98,0,1.97-.46,3.71-1.39,5.2-.93,1.5-2.25,2.63-3.98,3.39-1.72,.77-4.11,1.16-7.14,1.17l13.03,16.82h-4.48l-13.03-16.82h-2.05v16.82h-3.62v-36.23Zm3.62,3.55v12.32l6.24,.05c2.42,0,4.21-.23,5.37-.69,1.16-.46,2.06-1.19,2.71-2.2s.97-2.14,.97-3.39-.33-2.32-.99-3.31c-.66-.99-1.52-1.7-2.59-2.13-1.07-.43-2.85-.64-5.33-.64h-6.39Z"/>
        <path class="cls-1" d="M769.2,505.99l16.9,36.23h-3.91l-5.7-11.92h-15.61l-5.64,11.92h-4.04l17.12-36.23h.89Zm-.46,7.7l-6.21,13.12h12.39l-6.18-13.12Z"/>
        <path class="cls-1" d="M798.07,542.22v-36.23h7.51c5.42,0,9.35,.43,11.8,1.31,3.51,1.23,6.26,3.37,8.24,6.4,1.98,3.04,2.97,6.66,2.97,10.86,0,3.63-.78,6.82-2.35,9.58-1.57,2.76-3.61,4.79-6.11,6.11-2.5,1.31-6.01,1.97-10.53,1.97h-11.53Zm3.47-3.42h4.19c5.01,0,8.48-.31,10.42-.94,2.73-.89,4.87-2.48,6.43-4.79,1.56-2.3,2.34-5.12,2.34-8.45,0-3.49-.85-6.48-2.54-8.96s-4.05-4.18-7.07-5.09c-2.27-.69-6-1.03-11.21-1.03h-2.56v29.26Z"/>
        <path class="cls-1" d="M859.22,505.08c5.49,0,10.08,1.83,13.78,5.49,3.7,3.66,5.55,8.17,5.55,13.52s-1.85,9.8-5.53,13.5c-3.69,3.69-8.19,5.54-13.5,5.54s-9.91-1.84-13.61-5.52c-3.7-3.68-5.54-8.13-5.54-13.35,0-3.48,.84-6.71,2.53-9.68,1.68-2.97,3.98-5.3,6.89-6.98s6.06-2.53,9.44-2.53Zm.16,3.52c-2.68,0-5.22,.7-7.62,2.1-2.4,1.4-4.28,3.28-5.63,5.65s-2.02,5-2.02,7.91c0,4.31,1.49,7.94,4.48,10.91s6.58,4.45,10.79,4.45c2.81,0,5.42-.68,7.81-2.05,2.39-1.36,4.26-3.23,5.6-5.6,1.34-2.37,2.01-5,2.01-7.89s-.67-5.48-2.01-7.8-3.23-4.19-5.66-5.58c-2.43-1.4-5.02-2.1-7.75-2.1Z"/>
      </g>
      <g>
        <path class="cls-2" d="M540.37,102.34l-43.74,102.01c13.26,5.9,27.92,9.21,43.37,9.21s30.23-3.33,43.53-9.28l-43.16-101.94Z"/>
        <path class="cls-2" d="M468.3,185.9l56.79-132.89c2.55-6.22,8.65-10.27,15.54-10.27s12.41,3.85,15.05,10.3l56.16,132.71c21.45-19.53,34.92-47.68,34.92-78.98,0-58.97-47.81-106.78-106.78-106.78s-106.78,47.81-106.78,106.78c0,31.37,13.53,59.59,35.08,79.12Z"/>
      </g>
    </g>
  </g>
</svg>