<?xml version="1.0" encoding="utf-8"?>
<!-- Generator: Adobe Illustrator 26.5.0, SVG Export Plug-In . SVG Version: 6.00 Build 0)  -->
<svg version="1.1" id="Capa_1" xmlns="http://www.w3.org/2000/svg" xmlns:xlink="http://www.w3.org/1999/xlink" x="0px" y="0px"
	 viewBox="0 0 550 284" style="enable-background:new 0 0 550 284;" xml:space="preserve">
<style type="text/css">
	.st0{fill:#FFFFFF;}
	.st1{enable-background:new    ;}
</style>
<g>
	<g>
		<polygon class="st0" points="62.3,162.1 87.4,162.1 87.4,222.9 99.7,222.9 99.7,162.1 124.8,162.1 124.8,149.8 62.3,149.8 		"/>
	</g>
	<g>
		<path class="st0" d="M191.7,148.8c-2.6,0-4.9,1.5-5.9,3.9l-30,70.2h13.7l22.1-51.5l21.8,51.5h13.7l-29.7-70.2
			C196.4,150.2,194.3,148.8,191.7,148.8L191.7,148.8z"/>
	</g>
	<g>
		<path class="st0" d="M320.2,202.6c-4.5,5.8-11.6,9.1-19.5,9.1c-13.9,0-25.2-11.6-25.2-25.8s11.1-25.3,25.2-25.3
			c7.3,0,14,3.1,18.8,8.8l0.6,0.7l8.9-8.4l-0.5-0.6c-7.1-8-17.2-12.6-27.7-12.6c-21,0-37.5,16.5-37.5,37.5s16.8,38,37.5,38
			c12.8,0,24.5-6.2,31.2-16.6c0.4-0.6,0.6-1.4,0.6-2.1v-17.7h-12.3V202.6L320.2,202.6z"/>
	</g>
	<g>
		<path class="st0" d="M440.6,174.5c0-13.6-10.9-24.7-24.4-24.7h-29.1c-3.6,0-6.5,2.9-6.5,6.4v66.6h12.3v-25h17.4l17.4,25h14.1
			l-18.3-26C433.8,194,440.6,185.1,440.6,174.5L440.6,174.5z M428.3,174.5c0,6.6-5.3,11.8-12.1,11.8h-23.3v-24.1h23.3
			C422.8,162.1,428.3,167.8,428.3,174.5L428.3,174.5z"/>
	</g>
	<g>
		<path class="st0" d="M520.3,152.7c-1-2.4-3.1-3.9-5.7-3.9s-4.9,1.5-5.9,3.9l-30,70.2h13.7l22.1-51.5l21.8,51.5H550L520.3,152.7
			L520.3,152.7z"/>
	</g>
	<g>
		<rect y="149.8" class="st0" width="12.3" height="73.1"/>
	</g>
</g>
<g class="st1">
	<path class="st0" d="M103.4,257.7h3.7c2.1,0,3.5,0.1,4.3,0.3c1.1,0.3,1.9,0.8,2.6,1.6c0.7,0.8,1,1.8,1,3c0,1.2-0.3,2.2-1,3
		s-1.6,1.3-2.7,1.6c-0.8,0.2-2.4,0.3-4.7,0.3h-1.3v8.6h-1.8V257.7z M105.2,259.5v6.3l3.1,0c1.3,0,2.2-0.1,2.8-0.3
		c0.6-0.2,1-0.6,1.4-1.1c0.3-0.5,0.5-1.1,0.5-1.7c0-0.6-0.2-1.2-0.5-1.7c-0.3-0.5-0.8-0.9-1.3-1.1s-1.4-0.3-2.7-0.3H105.2z"/>
	<path class="st0" d="M129.5,257.7l8.6,18.5h-2l-2.9-6.1h-7.9l-2.9,6.1h-2.1l8.7-18.5H129.5z M129.2,261.6l-3.2,6.7h6.3L129.2,261.6
		z"/>
	<path class="st0" d="M144.4,257.7h3.7c2,0,3.4,0.1,4.2,0.3c1.1,0.3,2,0.8,2.7,1.6c0.7,0.8,1,1.8,1,3c0,1-0.2,1.9-0.7,2.7
		c-0.5,0.8-1.1,1.3-2,1.7c-0.9,0.4-2.1,0.6-3.6,0.6l6.6,8.6h-2.3l-6.6-8.6h-1v8.6h-1.8V257.7z M146.2,259.5v6.3l3.2,0
		c1.2,0,2.1-0.1,2.7-0.4c0.6-0.2,1.1-0.6,1.4-1.1c0.3-0.5,0.5-1.1,0.5-1.7c0-0.6-0.2-1.2-0.5-1.7c-0.3-0.5-0.8-0.9-1.3-1.1
		c-0.5-0.2-1.4-0.3-2.7-0.3H146.2z"/>
	<path class="st0" d="M180.4,261.1l-1.5,1.1c-0.8-1-1.8-1.8-2.9-2.4c-1.1-0.5-2.4-0.8-3.7-0.8c-1.5,0-2.8,0.4-4.1,1.1
		c-1.3,0.7-2.2,1.7-2.9,2.8c-0.7,1.2-1,2.5-1,4c0,2.2,0.8,4.1,2.3,5.6c1.5,1.5,3.5,2.3,5.8,2.3c2.6,0,4.7-1,6.5-3l1.5,1.1
		c-0.9,1.2-2.1,2.1-3.4,2.7c-1.4,0.6-2.9,1-4.6,1c-3.2,0-5.8-1.1-7.6-3.2c-1.6-1.8-2.3-4-2.3-6.6c0-2.7,0.9-5,2.8-6.8
		c1.9-1.8,4.3-2.8,7.1-2.8c1.7,0,3.3,0.3,4.7,1S179.5,259.9,180.4,261.1z"/>
	<path class="st0" d="M187.4,257.7H198v1.8h-8.7v5.8h8.7v1.8h-8.7v7.2h8.7v1.8h-10.5V257.7z"/>
	<path class="st0" d="M204.5,257.7h1.8v16.7h7.1v1.8h-8.9V257.7z"/>
	<path class="st0" d="M227.3,257.7l8.6,18.5h-2l-2.9-6.1H223l-2.9,6.1h-2.1l8.7-18.5H227.3z M227.1,261.6l-3.2,6.7h6.3L227.1,261.6z
		"/>
	<path class="st0" d="M240.2,272.7l1.6-0.9c1.1,2,2.4,3,3.8,3c0.6,0,1.2-0.1,1.7-0.4c0.5-0.3,1-0.7,1.2-1.2c0.3-0.5,0.4-1,0.4-1.5
		c0-0.6-0.2-1.2-0.6-1.8c-0.6-0.8-1.6-1.8-3.2-3c-1.5-1.2-2.5-2-2.9-2.5c-0.7-0.9-1-1.8-1-2.8c0-0.8,0.2-1.5,0.6-2.2
		c0.4-0.7,0.9-1.2,1.6-1.6c0.7-0.4,1.5-0.6,2.3-0.6c0.9,0,1.7,0.2,2.4,0.6s1.6,1.2,2.4,2.4l-1.5,1.1c-0.7-0.9-1.3-1.5-1.8-1.8
		c-0.5-0.3-1-0.4-1.6-0.4c-0.7,0-1.4,0.2-1.8,0.7c-0.5,0.5-0.7,1-0.7,1.7c0,0.4,0.1,0.8,0.3,1.2c0.2,0.4,0.5,0.8,0.9,1.2
		c0.2,0.2,1,0.8,2.4,1.8c1.6,1.2,2.7,2.2,3.3,3.1c0.6,0.9,0.9,1.8,0.9,2.8c0,1.3-0.5,2.5-1.5,3.5c-1,1-2.3,1.5-3.7,1.5
		c-1.1,0-2.1-0.3-3-0.9S241,274.1,240.2,272.7z"/>
	<path class="st0" d="M268.7,276.1v-18.5h3.8c2.8,0,4.8,0.2,6,0.7c1.8,0.6,3.2,1.7,4.2,3.3c1,1.5,1.5,3.4,1.5,5.5
		c0,1.8-0.4,3.5-1.2,4.9c-0.8,1.4-1.8,2.4-3.1,3.1c-1.3,0.7-3.1,1-5.4,1H268.7z M270.4,274.4h2.1c2.6,0,4.3-0.2,5.3-0.5
		c1.4-0.5,2.5-1.3,3.3-2.4c0.8-1.2,1.2-2.6,1.2-4.3c0-1.8-0.4-3.3-1.3-4.6c-0.9-1.3-2.1-2.1-3.6-2.6c-1.2-0.4-3.1-0.5-5.7-0.5h-1.3
		V274.4z"/>
	<path class="st0" d="M291.1,257.7h10.6v1.8H293v5.8h8.7v1.8H293v7.2h8.7v1.8h-10.5V257.7z"/>
	<path class="st0" d="M326.2,257.7l8.6,18.5h-2l-2.9-6.1H322l-2.9,6.1h-2.1l8.7-18.5H326.2z M326,261.6l-3.2,6.7h6.3L326,261.6z"/>
	<path class="st0" d="M358.8,260.8l-1.4,1.4c-1-1-2.2-1.8-3.4-2.3c-1.2-0.5-2.4-0.8-3.6-0.8c-1.4,0-2.8,0.4-4.1,1.1s-2.3,1.7-3,2.9
		c-0.7,1.2-1.1,2.5-1.1,3.9c0,1.4,0.4,2.7,1.1,4c0.7,1.2,1.8,2.2,3.1,2.9c1.3,0.7,2.8,1.1,4.3,1.1c1.9,0,3.5-0.5,4.8-1.6
		c1.3-1.1,2.1-2.5,2.3-4.2H352v-1.8h8c0,2.9-0.9,5.1-2.5,6.8s-3.9,2.5-6.7,2.5c-3.4,0-6.1-1.2-8.1-3.5c-1.5-1.8-2.3-3.9-2.3-6.2
		c0-1.7,0.4-3.4,1.3-4.9c0.9-1.5,2.1-2.7,3.6-3.5c1.5-0.8,3.3-1.3,5.2-1.3c1.6,0,3,0.3,4.4,0.8C356.2,258.6,357.5,259.5,358.8,260.8
		z"/>
	<path class="st0" d="M366.9,257.7h3.7c2,0,3.4,0.1,4.2,0.3c1.1,0.3,2,0.8,2.7,1.6c0.7,0.8,1,1.8,1,3c0,1-0.2,1.9-0.7,2.7
		c-0.5,0.8-1.1,1.3-2,1.7c-0.9,0.4-2.1,0.6-3.6,0.6l6.6,8.6h-2.3l-6.6-8.6h-1v8.6h-1.8V257.7z M368.7,259.5v6.3l3.2,0
		c1.2,0,2.1-0.1,2.7-0.4c0.6-0.2,1.1-0.6,1.4-1.1c0.3-0.5,0.5-1.1,0.5-1.7c0-0.6-0.2-1.2-0.5-1.7c-0.3-0.5-0.8-0.9-1.3-1.1
		c-0.5-0.2-1.4-0.3-2.7-0.3H368.7z"/>
	<path class="st0" d="M393.3,257.7l8.6,18.5h-2l-2.9-6.1H389l-2.9,6.1h-2.1l8.7-18.5H393.3z M393,261.6l-3.2,6.7h6.3L393,261.6z"/>
	<path class="st0" d="M408.1,276.1v-18.5h3.8c2.8,0,4.8,0.2,6,0.7c1.8,0.6,3.2,1.7,4.2,3.3c1,1.5,1.5,3.4,1.5,5.5
		c0,1.8-0.4,3.5-1.2,4.9c-0.8,1.4-1.8,2.4-3.1,3.1c-1.3,0.7-3.1,1-5.4,1H408.1z M409.8,274.4h2.1c2.6,0,4.3-0.2,5.3-0.5
		c1.4-0.5,2.5-1.3,3.3-2.4c0.8-1.2,1.2-2.6,1.2-4.3c0-1.8-0.4-3.3-1.3-4.6c-0.9-1.3-2.1-2.1-3.6-2.6c-1.2-0.4-3.1-0.5-5.7-0.5h-1.3
		V274.4z"/>
	<path class="st0" d="M439.3,257.2c2.8,0,5.1,0.9,7,2.8c1.9,1.9,2.8,4.2,2.8,6.9c0,2.7-0.9,5-2.8,6.9s-4.2,2.8-6.9,2.8
		c-2.7,0-5-0.9-6.9-2.8s-2.8-4.1-2.8-6.8c0-1.8,0.4-3.4,1.3-4.9c0.9-1.5,2-2.7,3.5-3.6C436,257.6,437.6,257.2,439.3,257.2z
		 M439.4,259c-1.4,0-2.7,0.4-3.9,1.1c-1.2,0.7-2.2,1.7-2.9,2.9c-0.7,1.2-1,2.5-1,4c0,2.2,0.8,4,2.3,5.6c1.5,1.5,3.4,2.3,5.5,2.3
		c1.4,0,2.8-0.3,4-1c1.2-0.7,2.2-1.6,2.9-2.8c0.7-1.2,1-2.5,1-4c0-1.5-0.3-2.8-1-4s-1.6-2.1-2.9-2.8
		C442.1,259.4,440.8,259,439.4,259z"/>
</g>
<g>
	<g>
		<path class="st0" d="M275.3,20.4c3,0,5.6,1.7,6.8,4.6l29.2,69c10.9-9.9,17.8-24.2,17.8-40c0-29.8-24.2-54-54-54s-54,24.2-54,54
			c0,15.9,6.9,30.2,17.8,40.1L268.3,25C269.5,22.2,272.2,20.4,275.3,20.4L275.3,20.4z"/>
	</g>
	<g>
		<path class="st0" d="M251.4,102.6c7.1,3.5,15.1,5.4,23.6,5.4s16.5-2,23.6-5.4l-23.5-55.4C275.2,47.1,251.4,102.6,251.4,102.6z"/>
	</g>
</g>
</svg>
