<?xml version="1.0" encoding="UTF-8"?>
<svg id="Capa_1" data-name="Capa 1" xmlns="http://www.w3.org/2000/svg" viewBox="0 0 555.42 183.27">
  <defs>
    <style>
      .cls-1 {
        fill: #fff;
      }
    </style>
  </defs>
  <path class="cls-1" d="M0,56.2c3.17,1,5.67,1.44,8.14,1.44,.71,0,1.4-.04,2.12-.11l.37-.04c1.07-.11,2.85-.31,5.15-.31,3.18,0,6.34,.37,9.38,1.11,6.42,1.55,10.66,4.26,14.07,6.44,.44,.28,.87,.56,1.3,.82,.09,.05,9.72,5.97,22.87,9.18,2.8,.68,5.21,1,7.6,1,2.66,0,5.19-.38,8.38-.87,4.8-.73,10.77-1.64,19.94-1.64h.06c9.02,0,14.92,.89,21.75,1.91,1.87,.28,3.8,.57,5.91,.86,13.35,1.83,27.69,2.76,42.62,2.76,4.73,0,9.57-.09,14.47-.28V0H0V56.2Z"/>
  <polygon class="cls-1" points="95.22 127.18 24.8 184.33 184.12 184.33 184.12 163.61 95.22 127.18"/>
  <path class="cls-1" d="M93.3,114.16l3.1,1.27,87.71,35.94v-61.56c-4.89,.18-9.74,.27-14.47,.27-15.44,0-30.29-.96-44.15-2.86-2.18-.3-4.15-.59-6.05-.88-6.65-1-11.9-1.78-20.08-1.79h-.06c-8.31,0-13.58,.8-18.24,1.51-3.38,.51-6.57,1-10.08,1-3.31,0-6.58-.42-10.28-1.33-14.95-3.66-25.71-10.29-26.16-10.57-.46-.29-.93-.59-1.41-.89-2.98-1.9-6.05-3.87-10.63-4.98-2.18-.53-4.44-.79-6.73-.79-1.69,0-3.05,.15-3.94,.24l-.43,.05c-1.09,.11-2.18,.17-3.26,.17-2.63,0-5.26-.32-8.14-1.01v116.38H6.84L90.7,116.27l2.6-2.11Z"/>
  <g>
    <path class="cls-1" d="M247.65,52.29c3.91,0,6.61-.21,8.09-.63,2.52-.73,4.52-2.03,5.99-3.9,1.47-1.87,2.21-4.21,2.21-7.03,0-2.54-.56-4.73-1.69-6.55s-2.66-3.14-4.61-3.95c-1.95-.81-5.12-1.22-9.53-1.22h-8.14v40.38h7.68v-17.1Zm0-15.78h2.17c2.38,0,4,.27,4.88,.8,1.21,.72,1.81,1.85,1.81,3.42,0,.9-.22,1.67-.64,2.3-.43,.63-1.02,1.09-1.77,1.36-.75,.28-2.08,.41-4,.41h-2.44v-8.29Z"/>
    <rect class="cls-1" x="273.71" y="29.01" width="7.62" height="40.38"/>
    <path class="cls-1" d="M309.58,51.44c2.56-.91,4.47-2.26,5.74-4.05s1.9-4,1.9-6.66-.58-4.71-1.73-6.56-2.67-3.17-4.56-3.97c-1.89-.8-5.06-1.19-9.52-1.19h-8.13v40.38h7.68v-17.1h.7l9.07,17.1h8.39l-9.55-17.95Zm-1.16-7.61c-.92,.64-2.6,.96-5.04,.96h-2.41v-8.29h2.1c2.04,0,3.44,.14,4.21,.43s1.38,.75,1.83,1.4c.46,.65,.68,1.42,.68,2.3,0,1.49-.46,2.55-1.38,3.19Z"/>
    <path class="cls-1" d="M356.61,68.72c2.65-1.13,5.47-3.14,8.44-6.06l-5.2-5.44c-2.21,2.2-4.24,3.71-6.08,4.55s-3.88,1.25-6.11,1.25c-2.61,0-4.99-.6-7.12-1.79-2.14-1.19-3.79-2.83-4.96-4.92-1.17-2.09-1.75-4.48-1.75-7.17,0-3.87,1.32-7.12,3.96-9.75,2.64-2.64,5.89-3.96,9.74-3.96,4.56,0,8.67,1.93,12.33,5.8l5.37-5.12c-2.23-2.59-4.88-4.59-7.97-6-3.08-1.41-6.28-2.11-9.61-2.11-3.91,0-7.56,.95-10.95,2.85-3.39,1.9-6,4.42-7.81,7.55-1.82,3.13-2.73,6.71-2.73,10.73,0,6.22,2,11.32,5.99,15.3,3.99,3.98,9.12,5.97,15.39,5.97,3.4,0,6.42-.56,9.08-1.69Z"/>
    <path class="cls-1" d="M387.04,29.01l-15.55,40.38h7.98l3.28-8.32h16.46l3.16,8.32h7.98l-15.51-40.38h-7.79Zm-1.47,24.57l5.41-13.86,5.38,13.86h-10.79Z"/>
    <path class="cls-1" d="M436.68,49.74c-.62-.64-2.4-2.19-5.33-4.64-3.13-2.65-5.01-4.38-5.63-5.19-.46-.6-.69-1.24-.69-1.92s.32-1.29,.96-1.83c.64-.54,1.47-.81,2.47-.81,2.07,0,4.1,1.39,6.1,4.17l5.69-5.02c-2.12-2.47-4.09-4.17-5.91-5.11-1.82-.93-3.74-1.4-5.75-1.4-3.13,0-5.76,1-7.89,3.01-2.13,2-3.2,4.41-3.2,7.21,0,1.94,.64,3.88,1.92,5.83,1.28,1.95,4.12,4.72,8.51,8.3,2.31,1.89,3.8,3.29,4.48,4.2,.68,.92,1.02,1.83,1.02,2.75,0,1.01-.45,1.89-1.35,2.66s-2,1.15-3.32,1.15c-2.53,0-4.76-1.78-6.7-5.35l-6.45,3.9c1.52,3.02,3.34,5.23,5.48,6.64,2.13,1.41,4.63,2.11,7.51,2.11,3.68,0,6.66-1.08,8.95-3.24,2.29-2.16,3.43-4.9,3.43-8.21,0-1.7-.32-3.27-.98-4.71-.65-1.44-1.75-2.94-3.31-4.52Z"/>
    <path class="cls-1" d="M517.83,49.76c0-4.37-.92-8.2-2.77-11.47-1.84-3.28-4.19-5.64-7.04-7.1-2.85-1.45-7.2-2.18-13.07-2.18h-9.09v40.38h9.23c5.22,0,8.89-.33,11.01-.99s4.09-1.85,5.9-3.57c1.82-1.72,3.24-3.88,4.27-6.49,1.03-2.61,1.55-5.47,1.55-8.58Zm-9.27,6.86c-1,1.91-2.3,3.26-3.88,4.07-1.58,.81-4.13,1.21-7.64,1.21h-3.56v-25.47h2.6c4.77,0,8.23,1.06,10.39,3.19,2.39,2.36,3.59,5.69,3.59,9.97,0,2.79-.5,5.13-1.51,7.03Z"/>
    <polygon class="cls-1" points="550 36.53 550 29.01 527.98 29.01 527.98 69.39 550 69.39 550 61.84 535.61 61.84 535.61 51.22 550 51.22 550 43.83 535.61 43.83 535.61 36.53 550 36.53"/>
    <polygon class="cls-1" points="250.91 92.39 241.21 92.39 241.21 143.39 265.04 143.39 265.04 134.14 250.91 134.14 250.91 92.39"/>
    <polygon class="cls-1" points="287.43 92.39 277.73 92.39 277.73 143.39 301.56 143.39 301.56 134.14 287.43 134.14 287.43 92.39"/>
    <rect class="cls-1" x="313.56" y="92.39" width="9.63" height="51"/>
    <path class="cls-1" d="M363.83,124.16c0,3.42-.24,5.73-.71,6.95-.47,1.21-1.33,2.21-2.56,3s-2.71,1.18-4.42,1.18c-1.62,0-3-.35-4.14-1.06-1.14-.7-1.96-1.65-2.46-2.82s-.75-3.19-.75-6.03v-32.98h-9.73v30.41c0,6.08,.59,10.4,1.77,12.95,1.18,2.55,3.13,4.68,5.87,6.38,2.74,1.7,5.95,2.55,9.64,2.55,2.82,0,5.29-.45,7.41-1.33s4-2.26,5.63-4.11c1.63-1.85,2.73-3.77,3.31-5.75,.58-1.99,.87-5.55,.87-10.68v-30.41h-9.73v31.77Z"/>
    <polygon class="cls-1" points="424.45 92.39 414.76 92.39 414.76 143.39 438.58 143.39 438.58 134.14 424.45 134.14 424.45 92.39"/>
    <polygon class="cls-1" points="460.98 92.39 451.28 92.39 451.28 143.39 475.11 143.39 475.11 134.14 460.98 134.14 460.98 92.39"/>
    <rect class="cls-1" x="487.11" y="92.39" width="9.63" height="51"/>
    <path class="cls-1" d="M537.38,124.16c0,3.42-.24,5.73-.71,6.95-.47,1.21-1.33,2.21-2.56,3s-2.71,1.18-4.42,1.18c-1.62,0-3-.35-4.14-1.06-1.14-.7-1.96-1.65-2.46-2.82s-.75-3.19-.75-6.03v-32.98h-9.73v30.41c0,6.08,.59,10.4,1.77,12.95,1.18,2.55,3.13,4.68,5.87,6.38,2.74,1.7,5.95,2.55,9.64,2.55,2.82,0,5.29-.45,7.41-1.33s4-2.26,5.63-4.11c1.63-1.85,2.73-3.77,3.31-5.75,.58-1.99,.87-5.55,.87-10.68v-30.41h-9.73v31.77Z"/>
  </g>
</svg>