<?xml version="1.0" encoding="UTF-8"?>
<svg id="Capa_1" data-name="Capa 1" xmlns="http://www.w3.org/2000/svg" viewBox="0 0 100 100">
  <defs>
    <style>
      .cls-1 {
        fill: #507435;
      }
    </style>
  </defs>
  <path class="cls-1" d="M24.46,66.11c-2.05-.8-4.95-2.32-7.06-5.26-4.81-6.71-2.71-17.04,1.77-23.45,4.9-7.02,10.28-5.92,16.62-13.54,4.31-5.18,6.07-10.81,6.89-14.54,2.16,2.44,4.67,5.8,6.79,10.17,3.93,8.12,4.51,15.63,4.49,20.05-.03,0-.07,.01-.12,.02-4.48,.85-11.97,2.26-18.42,7.66-1.38,1.15-5.75,5.14-8.36,11.23-1.35,3.14-2.61,7.66-2.6,7.65Z"/>
  <path class="cls-1" d="M89.5,22.68c-3.71,3.98-7.83,7.44-12.29,10.31-9.04,5.81-16.25,7.16-22.61,8.35-5.99,1.12-11.17,2.09-16.53,6.75-7.66,6.66-13.37,18.75-10.78,28.57,.87-.13,1.74-.27,2.6-.44,19.71-3.82,32.83-16.01,38.91-22.95l1.32-1.5,1.5,1.32,1.35,1.19,1.5,1.32-1.32,1.5c-6.56,7.49-20.76,20.67-42.17,24.82-.4,.08-.8,.13-1.2,.2,3.43,4.94,8.51,7.04,8.76,7.14,6.27,2.53,14.88,1.66,23.62-2.38,13.32-6.15,24.29-18.04,28.62-31.01,4.34-12.99,1.52-25.48-1.3-33.18Z"/>
  <path class="cls-1" d="M17.52,81.2c-3.51,0-7.03-.26-10.56-.79l.27-1.78c7.76,1.16,15.52,1.01,23.05-.45,20.29-3.93,33.79-16.47,40.03-23.59l1.35,1.19c-6.39,7.3-20.22,20.14-41.04,24.17-4.31,.83-8.69,1.25-13.1,1.25Z"/>
</svg>