<?xml version="1.0" encoding="UTF-8"?>
<svg id="Capa_1" data-name="Capa 1" xmlns="http://www.w3.org/2000/svg" viewBox="0 0 100 100">
  <defs>
    <style>
      .cls-1 {
        fill: #507435;
      }
    </style>
  </defs>
  <path class="cls-1" d="M5.17,51.4v-2.8c.14-.03,.16-.13,.2-.25,.51-1.93,1.68-3.43,3.11-4.76,1.2-1.11,2.57-2.02,3.81-3.08,2.67-2.29,2.45-1.66,1.67-5.06-.39-1.73-1-3.4-1.35-5.15-1.04-5.23,1.58-8.97,6.85-9.75,1.91-.28,3.84-.36,5.76-.32,2.06,.04,3.53-.67,4.03-2.83,.1-.45,.3-.88,.46-1.32,.73-2.06,1.43-4.13,2.73-5.92,2.11-2.89,5.21-3.83,8.58-2.61,1.94,.7,3.59,1.91,5.29,3.03,3.89,2.58,3.54,2.57,7.4,0,1.7-1.13,3.35-2.33,5.28-3.04,3.36-1.22,6.46-.28,8.58,2.61,.54,.73,.96,1.53,1.35,2.34,.89,1.84,1.4,3.82,2.17,5.7,.49,1.21,1.23,1.86,2.57,1.91,.69,.02,1.39,.12,2.09,.12,1.67,0,3.32,.1,4.97,.34,4.78,.72,7.3,3.97,6.79,8.77-.22,2.13-1.03,4.12-1.49,6.18-.75,3.34-.93,2.65,1.55,4.87,.35,.31,.74,.56,1.11,.85,1.44,1.09,2.87,2.2,4.05,3.59,1.68,1.97,2.51,4.19,1.89,6.79-.46,1.91-1.65,3.37-3.03,4.71-1.58,1.52-3.45,2.68-5.08,4.14-.8,.72-1.11,1.45-.84,2.52,.22,.84,.38,1.7,.64,2.54,.55,1.78,1.04,3.57,1.24,5.44,.42,3.87-1.59,6.97-5.31,8.07-2.21,.65-4.49,.6-6.76,.72-4.02,.21-3.58-.04-5.01,3.63-.66,1.71-1.2,3.46-2.07,5.08-.91,1.68-2.09,3.1-3.88,3.88-2.48,1.08-4.84,.57-7.12-.64-1.5-.79-2.83-1.84-4.27-2.73-3.35-2.09-2.87-2.03-6.2-.07-.17,.1-.33,.25-.49,.36-1.58,1.1-3.15,2.2-4.94,2.95-3.64,1.54-7.05,.56-9.26-2.71-.44-.65-.79-1.36-1.14-2.06-.91-1.83-1.41-3.81-2.18-5.7-.49-1.21-1.23-1.86-2.57-1.91-.69-.02-1.39-.12-2.09-.12-1.67,0-3.32-.1-4.97-.35-3.56-.53-6.02-2.59-6.7-5.64-.43-1.93-.07-3.82,.38-5.71,.45-1.87,1.19-3.65,1.44-5.57,.08-.67-.05-1.15-.53-1.63-1.06-1.06-2.29-1.89-3.45-2.82-1.44-1.14-2.83-2.34-3.9-3.87-.6-.86-.86-1.87-1.35-2.78Zm40.06,2.76c-.19-.27-.33-.53-.53-.74-1.97-1.99-3.96-3.96-5.94-5.95-1.13-1.13-2.46-1.54-3.99-1.04-2.68,.89-3.41,4.16-1.37,6.24,2.93,2.97,5.89,5.91,8.84,8.86,2.08,2.08,4.08,2.09,6.14,.03,5.98-5.98,11.97-11.96,17.95-17.95,.21-.21,.42-.41,.6-.64,1.01-1.23,1.11-2.98,.27-4.33-.87-1.4-2.49-2.03-4.09-1.64-.83,.2-1.45,.7-2.04,1.29-5.23,5.24-10.47,10.48-15.85,15.86Z"/>
</svg>