<?xml version="1.0" encoding="UTF-8"?>
<svg id="Capa_1" data-name="Capa 1" xmlns="http://www.w3.org/2000/svg" viewBox="0 0 100 100">
  <defs>
    <style>
      .cls-1 {
        fill: #507435;
      }
    </style>
  </defs>
  <path class="cls-1" d="M80.6,28.94c-.04-.09-.08-.18-.12-.27-5.17-11.86-17.57-21.27-30.49-21.64-12.92,.38-25.32,9.78-30.49,21.64-.04,.09-.08,.18-.12,.27-4.04,9.51-2.41,20.5,3.81,28.75,8.93,11.83,17.86,23.65,26.79,35.48,8.93-11.83,17.86-23.65,26.79-35.48,6.23-8.25,7.86-19.23,3.81-28.75Zm-30.6,24.69c-6.79,0-12.3-5.5-12.3-12.3s5.5-12.3,12.3-12.3,12.3,5.5,12.3,12.3-5.5,12.3-12.3,12.3Z"/>
</svg>